<svg xmlns="http://www.w3.org/2000/svg" xmlns:xlink="http://www.w3.org/1999/xlink" viewBox="0 0 1200 1200"><defs><linearGradient id="linear-gradient" x1="645.43" y1="881.9" x2="645.43" y2="881.9" gradientUnits="userSpaceOnUse"><stop offset="0" stop-color="#00b7f0"/><stop offset="1" stop-color="#007cc1"/></linearGradient></defs><title>Artboard 7</title><g id="Background"><rect width="1200" height="1200" style="fill:#f7f6f5"/></g><g id="Graphic_Elements" data-name="Graphic Elements"><circle cx="600" cy="275.45" r="67.5" style="fill:#010201"/><path d="M600,240.6c11.35,0,12.69.05,17.17.25a23.66,23.66,0,0,1,7.9,1.46,13.4,13.4,0,0,1,4.88,3.18,13.19,13.19,0,0,1,3.18,4.89,23.38,23.38,0,0,1,1.46,7.89c.21,4.48.25,5.83.25,17.18s0,12.69-.25,17.17a23.38,23.38,0,0,1-1.46,7.89,14.09,14.09,0,0,1-8.06,8.07,23.66,23.66,0,0,1-7.9,1.46c-4.48.2-5.82.25-17.17.25s-12.69-.05-17.17-.25a23.66,23.66,0,0,1-7.9-1.46,14.09,14.09,0,0,1-8.06-8.07,23.38,23.38,0,0,1-1.46-7.89c-.21-4.48-.25-5.83-.25-17.17s0-12.7.25-17.18a23.38,23.38,0,0,1,1.46-7.89,13.19,13.19,0,0,1,3.18-4.89,13.4,13.4,0,0,1,4.88-3.18,23.66,23.66,0,0,1,7.9-1.46c4.48-.2,5.82-.25,17.17-.25m0-7.65c-11.54,0-13,0-17.52.25a31.26,31.26,0,0,0-10.32,2,21.7,21.7,0,0,0-12.43,12.43,31,31,0,0,0-2,10.31c-.21,4.54-.26,6-.26,17.53s0,13,.26,17.52a31.14,31.14,0,0,0,2,10.32,21.72,21.72,0,0,0,12.43,12.42,31,31,0,0,0,10.32,2c4.53.21,6,.26,17.52.26s13-.05,17.52-.26a31,31,0,0,0,10.32-2,21.72,21.72,0,0,0,12.43-12.42,31.14,31.14,0,0,0,2-10.32c.21-4.53.26-6,.26-17.52s0-13-.26-17.53a31,31,0,0,0-2-10.31,21.7,21.7,0,0,0-12.43-12.43,31.26,31.26,0,0,0-10.32-2c-4.53-.21-6-.25-17.52-.25Z" style="fill:#fff"/><path d="M600,253.62a21.83,21.83,0,1,0,21.82,21.83A21.82,21.82,0,0,0,600,253.62Zm0,36a14.17,14.17,0,1,1,14.17-14.16A14.17,14.17,0,0,1,600,289.61Z" style="fill:#fff"/><circle cx="622.69" cy="252.76" r="5.1" style="fill:#fff"/><circle cx="375.84" cy="275.45" r="67.5" style="fill:#010201"/><g id="logo"><path id="bubble" d="M375.84,225.45c-28.73,0-51,21-51,49.47a48.42,48.42,0,0,0,16,36.59,4.06,4.06,0,0,1,1.37,2.9l.28,9.08a4.08,4.08,0,0,0,5.73,3.6l10.12-4.46a4,4,0,0,1,2.72-.2,56,56,0,0,0,14.77,2c28.72,0,51-21.05,51-49.47S404.56,225.45,375.84,225.45Z" style="fill:#fff;fill-rule:evenodd"/><path id="bolt" d="M345.21,289.38l15-23.76a7.64,7.64,0,0,1,11.06-2.05l11.92,8.94a3,3,0,0,0,3.68,0L403,260.29a2.42,2.42,0,0,1,3.51,3.22l-15,23.77a7.65,7.65,0,0,1-11.06,2l-11.92-8.94a3.06,3.06,0,0,0-3.68,0l-16.1,12.21A2.42,2.42,0,0,1,345.21,289.38Z" style="fill:#010201;fill-rule:evenodd"/></g><circle cx="824.17" cy="275.45" r="67.5" style="fill:#010201"/><g id="WA_Logo" data-name="WA Logo"><path d="M856.64,243.81a42.82,42.82,0,0,0-67.4,51.65l-6.07,22.18,22.69-5.95a42.92,42.92,0,0,0,20.47,5.21h0a42.82,42.82,0,0,0,30.29-73.09Zm-30.3,65.86h0a35.6,35.6,0,0,1-18.11-5l-1.3-.77-13.47,3.53L797,294.34,796.2,293a35.59,35.59,0,1,1,30.14,16.68ZM845.87,283c-1.07-.54-6.33-3.12-7.31-3.48s-1.7-.53-2.41.54-2.76,3.48-3.39,4.19-1.25.8-2.32.27a29.49,29.49,0,0,1-8.6-5.31,32.21,32.21,0,0,1-6-7.41c-.63-1.07-.07-1.65.47-2.18s1.07-1.25,1.6-1.88A7.2,7.2,0,0,0,819,266a2,2,0,0,0-.09-1.88c-.27-.53-2.41-5.8-3.3-7.94s-1.75-1.8-2.4-1.83-1.34,0-2.06,0a3.94,3.94,0,0,0-2.85,1.34,12,12,0,0,0-3.74,8.92c0,5.26,3.83,10.35,4.37,11.06s7.54,11.52,18.27,16.15a62.7,62.7,0,0,0,6.1,2.26,14.67,14.67,0,0,0,6.74.42c2.06-.31,6.33-2.59,7.22-5.08s.9-4.64.63-5.09S846.94,283.56,845.87,283Z" style="fill:#fff;fill-rule:evenodd"/></g><circle cx="1048.33" cy="275.45" r="67.5" style="fill:#010201"/><path d="M1034.69,314.32c33,0,51-27.31,51-51,0-.77,0-1.54,0-2.31a36.52,36.52,0,0,0,8.94-9.28,36.21,36.21,0,0,1-10.29,2.82,18,18,0,0,0,7.88-9.92,35.73,35.73,0,0,1-11.38,4.35,17.93,17.93,0,0,0-31,12.26,17.75,17.75,0,0,0,.46,4.09,50.88,50.88,0,0,1-36.94-18.73,17.93,17.93,0,0,0,5.55,23.93,17.82,17.82,0,0,1-8.12-2.24,1.69,1.69,0,0,0,0,.23,17.93,17.93,0,0,0,14.38,17.57,18,18,0,0,1-8.09.31,18,18,0,0,0,16.74,12.45,36,36,0,0,1-22.26,7.67,35.48,35.48,0,0,1-4.27-.25,50.76,50.76,0,0,0,27.47,8.05" style="fill:#fff"/><circle cx="824.17" cy="668.55" r="67.5" style="fill:#010201"/><path d="M844.42,711.14H830.19c-12.81,0-22.36-6.59-22.36-22.36V663.53H796.19V649.86C809,646.53,814.36,635.51,815,626h13.3v21.68H843.8v15.89H828.28v22c0,6.59,3.33,8.87,8.62,8.87h7.52Z" style="fill:#fff"/><path d="M151.73,404.85a67.58,67.58,0,0,0-24.64,130.5c-.61-5.34-1.11-13.57.23-19.41,1.22-5.28,7.89-33.58,7.89-33.58a24.63,24.63,0,0,1-2-10c0-9.39,5.45-16.4,12.23-16.4,5.79,0,8.57,4.34,8.57,9.51,0,5.78-3.67,14.45-5.62,22.52-1.61,6.72,3.39,12.23,10,12.23,12,0,21.24-12.68,21.24-30.92,0-16.18-11.62-27.46-28.25-27.46-19.24,0-30.52,14.4-30.52,29.3,0,5.78,2.22,12,5,15.4a2,2,0,0,1,.45,2c-.5,2.11-1.67,6.72-1.89,7.67-.28,1.22-1,1.5-2.28.89-8.46-4-13.74-16.24-13.74-26.19,0-21.29,15.46-40.87,44.65-40.87,23.41,0,41.65,16.69,41.65,39,0,23.29-14.68,42-35,42-6.84,0-13.29-3.56-15.46-7.78,0,0-3.39,12.9-4.23,16.07-1.5,5.89-5.61,13.23-8.39,17.73a67.62,67.62,0,1,0,20.13-132.22Z" style="fill:#010201"/><circle cx="600" cy="472.46" r="67.5" style="fill:#010201"/><path d="M643.12,450.8a11.3,11.3,0,0,0-8-8C628.14,441,600,441,600,441s-28.14,0-35.16,1.88a11.3,11.3,0,0,0-8,8c-1.88,7-1.88,21.66-1.88,21.66s0,14.65,1.88,21.67a11.27,11.27,0,0,0,8,7.95C571.86,504,600,504,600,504s28.14,0,35.16-1.88a11.27,11.27,0,0,0,8-7.95c1.88-7,1.88-21.67,1.88-21.67S645,457.82,643.12,450.8ZM591,486V459l23.38,13.5Z" style="fill:#fff"/><circle cx="1048.33" cy="472.46" r="67.5" style="fill:#010201"/><path d="M1032.21,463.37c17.94-6.18,21-22.29,18.71-37.1a.73.73,0,0,1,.91-.77c17.18,8.4,36.5,26.73,36.5,54.21,0,21.08-16.34,39.71-40.09,39.71a38.18,38.18,0,0,1-21.53-70.78.68.68,0,0,1,1.07.53c.23,2.83,1,9.93,4.12,14.2Z" style="fill:#fff;fill-rule:evenodd"/><circle cx="824.17" cy="472.46" r="67.5" style="fill:#010201"/><path d="M829.39,463.26c1.11-1.25,2-2.52,3.16-3.59A17.34,17.34,0,0,1,845,454.75a28.81,28.81,0,0,1,7.85.95c5.86,1.7,9.26,5.73,10.89,11.45a48.39,48.39,0,0,1,1.45,13.12c0,9.33,0,18.65,0,28,0,.87-.24,1.1-1.1,1.09q-7.22-.06-14.41,0c-.85,0-1-.25-1-1q0-13.31,0-26.62a23.87,23.87,0,0,0-.78-6.61c-1.15-4-4-6-8.17-5.79-5.69.3-8.66,3.13-9.38,8.92a32.16,32.16,0,0,0-.26,4.16c0,8.63,0,17.26,0,25.89,0,.86-.22,1.11-1.1,1.1-4.83,0-9.67,0-14.51,0-.78,0-1-.2-1-1q0-25.62,0-51.25c0-.85.27-1,1.07-1q6.9.06,13.79,0c.84,0,1.06.27,1,1.07C829.36,459.17,829.39,461.21,829.39,463.26Z" style="fill:#fefefe"/><path d="M803.07,482.78c0,8.45,0,16.9,0,25.35,0,.94-.23,1.23-1.2,1.22-4.81-.06-9.61,0-14.41,0-.77,0-1-.19-1-1q0-25.68,0-51.34c0-.71.18-1,.93-.95,4.87,0,9.74,0,14.61,0,.94,0,1.06.35,1.06,1.16Q803.05,470,803.07,482.78Z" style="fill:#fefefe"/><path d="M804.39,439.11a9.59,9.59,0,1,1-9.57-9.54A9.62,9.62,0,0,1,804.39,439.11Z" style="fill:#fefefe"/><circle cx="151.67" cy="1061.66" r="67.5" style="fill:#010201"/><circle cx="125.63" cy="1061.8" r="20.99" style="fill:#fff"/><circle cx="177.81" cy="1061.8" r="20.99" style="fill:#fff"/><circle cx="600" cy="668.55" r="67.5" style="fill:#010201"/><path d="M623.25,652.63c0,1.85-.11,3.71-.25,5.56,0,.31,0,.63,0,.95,0,.68.39,1,1.07.9a3.18,3.18,0,0,0,.74-.17l2-.74a27.24,27.24,0,0,1,3.41-1.13,5.18,5.18,0,0,1,2.38-.09,2.87,2.87,0,0,1,2.06,4,4,4,0,0,1-.79,1.21,8.23,8.23,0,0,1-1.58,1.36l-2,1.36-3.43,2.26c-.47.32-.93.65-1.38,1a5.23,5.23,0,0,0-.69.64,2.24,2.24,0,0,0-.59,1.69,8.5,8.5,0,0,0,.32,1.8,22.3,22.3,0,0,0,2.38,5.35,30.62,30.62,0,0,0,7.06,8,40.13,40.13,0,0,0,7.73,4.88c.25.12.49.26.72.39a1.46,1.46,0,0,1,.46.43.74.74,0,0,1,.06.83,2.12,2.12,0,0,1-.54.61,6,6,0,0,1-1,.65,23,23,0,0,1-4.94,1.92c-.73.19-1.46.4-2.18.62a8.4,8.4,0,0,0-1.45.61,2.61,2.61,0,0,0-1.41,1.92c-.09.47-.15,1-.23,1.43a1.9,1.9,0,0,1-1.83,1.85,10.55,10.55,0,0,1-1.26.13c-1,.06-2.1.09-3.15.15a26.88,26.88,0,0,0-7,1.25,14,14,0,0,0-2.77,1.23c-.93.53-1.85,1.09-2.77,1.64a29.56,29.56,0,0,1-4.54,2.35,20.14,20.14,0,0,1-5.52,1.27,24,24,0,0,1-4.79-.06,19.37,19.37,0,0,1-6.8-2.06c-1-.51-1.95-1.08-2.9-1.66l-2.11-1.27a18.23,18.23,0,0,0-5.41-2.06A31,31,0,0,0,575,703l-2.78-.13a8.16,8.16,0,0,1-1.56-.23,1.68,1.68,0,0,1-1.33-1.37c-.08-.41-.15-.83-.22-1.24l0-.25a2.84,2.84,0,0,0-1.74-2.38,12.29,12.29,0,0,0-1.95-.71c-1.16-.32-2.33-.61-3.46-1a21.77,21.77,0,0,1-2.88-1.28,8.39,8.39,0,0,1-.81-.5,3.09,3.09,0,0,1-.48-.4.92.92,0,0,1,.12-1.55,5.71,5.71,0,0,1,1-.56,39.43,39.43,0,0,0,6.82-4.2,31.07,31.07,0,0,0,7.65-8.35,22.74,22.74,0,0,0,2.52-5.57,7.72,7.72,0,0,0,.33-1.92,2.23,2.23,0,0,0-.62-1.67,6.71,6.71,0,0,0-.85-.75c-.88-.66-1.8-1.26-2.71-1.86l-3.5-2.28a11.87,11.87,0,0,1-1.65-1.27,6.05,6.05,0,0,1-1-1.17,3,3,0,0,1-.17-2.85,2.52,2.52,0,0,1,1.46-1.4,4.32,4.32,0,0,1,2.31-.19,14.73,14.73,0,0,1,2.67.75c.89.32,1.77.67,2.66,1a6.11,6.11,0,0,0,1.26.38,1.17,1.17,0,0,0,.32,0c.51,0,.93-.18.92-.86s0-1.14-.06-1.71a86.11,86.11,0,0,1-.17-9.23,32.72,32.72,0,0,1,.72-5.82,18.82,18.82,0,0,1,3.38-7.28,21.87,21.87,0,0,1,11.92-7.95,26.45,26.45,0,0,1,8.07-.91,25,25,0,0,1,8.38,1.68,21.31,21.31,0,0,1,6.91,4.24,19.56,19.56,0,0,1,5.55,8.46,25.42,25.42,0,0,1,1,4.63A57.89,57.89,0,0,1,623.25,652.63Z" style="fill:#fff"/><circle cx="151.67" cy="864.64" r="67.5" style="fill:#010201"/><path d="M200,874.18a40.84,40.84,0,0,0-1-4.57A24.81,24.81,0,0,0,187.61,856a33,33,0,0,0-22.76-4.12,30.22,30.22,0,0,0-18.35,9.88,21.71,21.71,0,0,0-2.17,26.52c5.42,8.38,13.56,12.21,23.22,13.24A37.91,37.91,0,0,0,181,900.1a2,2,0,0,1,1.29.08c2.19,1.08,4.35,2.24,6.52,3.37l2.58,1.37c-.09-.3-.12-.44-.17-.58-.77-2.42-1.54-4.85-2.34-7.26-.16-.49-.15-.77.31-1.07.61-.4,1.17-.87,1.74-1.33a24.25,24.25,0,0,0,8.41-12.38c.36-1.31.54-2.66.8-4v-3.64C200.12,874.51,200.07,874.34,200,874.18Zm-38.51-1.83a4,4,0,1,1,4-4A4,4,0,0,1,161.52,872.35Zm19.38,0a4,4,0,1,1,4-4A4,4,0,0,1,180.9,872.35Z" style="fill:#fff"/><path d="M139.51,871.3c1.49-6.6,5.33-11.64,10.74-15.52,6.47-4.64,13.81-6.45,21.7-6.28h1.51a.79.79,0,0,0,0-.26c-.16-.66-.31-1.32-.51-2-2.71-8.56-8.4-14.61-16.24-18.58a39.49,39.49,0,0,0-30-2.49c-8.11,2.42-14.76,7-19.35,14.2a25.2,25.2,0,0,0-3.87,17.87,27.3,27.3,0,0,0,8.41,15.81c1.61,1.56,3.4,2.93,5.15,4.42-1.09,3.26-2.22,6.62-3.41,10.19l1.17-.61c3.29-1.75,6.59-3.49,9.87-5.28a2,2,0,0,1,1.7-.17,43.55,43.55,0,0,0,12,1.87h1.87l-.31-1.08A23.73,23.73,0,0,1,139.51,871.3Zm11.21-32.39a5,5,0,1,1-5,5A5,5,0,0,1,150.72,838.91Zm-24.31,10a5,5,0,1,1,5-5A5,5,0,0,1,126.41,848.89Z" style="fill:#fff"/><circle cx="824.17" cy="864.64" r="67.5" style="fill:#010201"/><path d="M869.15,864.64a9.83,9.83,0,0,0-16.67-7.08c-6.73-4.86-16-8-26.32-8.36l4.48-21.09,14.65,3.11a7,7,0,1,0,.72-3.44l-16.36-3.48a1.72,1.72,0,0,0-1.32.25,1.75,1.75,0,0,0-.76,1.11l-5,23.54c-10.48.29-19.9,3.43-26.71,8.34A9.84,9.84,0,1,0,785,873.61a19.64,19.64,0,0,0-.23,3c0,15.14,17.63,27.42,39.37,27.42s39.38-12.28,39.38-27.42a19.37,19.37,0,0,0-.23-3A9.83,9.83,0,0,0,869.15,864.64Zm-67.48,7a7,7,0,1,1,7,7A7,7,0,0,1,801.67,871.67Zm39.2,18.58c-4.8,4.79-14,5.16-16.7,5.16s-11.9-.37-16.69-5.16a1.82,1.82,0,0,1,2.58-2.58c3,3,9.49,4.1,14.11,4.1s11.1-1.07,14.13-4.1a1.82,1.82,0,0,1,2.57,2.58Zm-1.24-11.55a7,7,0,1,1,7-7A7,7,0,0,1,839.63,878.7Z" style="fill:#fff"/><circle cx="1048.33" cy="864.64" r="67.5" style="fill:#010201"/><path d="M1048.33,814.64a50,50,0,1,0,50,50A50,50,0,0,0,1048.33,814.64Zm33,23a42.56,42.56,0,0,1,9.65,26.58c-1.41-.27-15.51-3.15-29.72-1.36-.32-.7-.6-1.46-.92-2.22-.87-2.06-1.84-4.18-2.82-6.18C1073.28,848.1,1080.43,838.88,1081.36,837.68Zm-33-15.67a42.62,42.62,0,0,1,28.31,10.74c-.76,1.08-7.21,9.71-22.4,15.4a231,231,0,0,0-15.94-25A43.37,43.37,0,0,1,1048.33,822Zm-18.17,4A268.67,268.67,0,0,1,1046,850.7a160.52,160.52,0,0,1-39.48,5.21A42.87,42.87,0,0,1,1030.16,826Zm-24.56,38.66v-1.3a156.1,156.1,0,0,0,43.87-6.07c1.25,2.38,2.38,4.82,3.47,7.26-.54.17-1.14.33-1.68.49-22,7.1-33.73,26.52-34.71,28.15A42.6,42.6,0,0,1,1005.6,864.69Zm42.73,42.68a42.39,42.39,0,0,1-26.19-9c.76-1.57,9.43-18.28,33.51-26.68.11-.06.16-.06.27-.11A176.36,176.36,0,0,1,1065,904,41.88,41.88,0,0,1,1048.33,907.37Zm23.81-7.32a184,184,0,0,0-8.3-30.42,62.26,62.26,0,0,1,26.57,1.84A42.3,42.3,0,0,1,1072.14,900.05Z" style="fill:#fff;fill-rule:evenodd"/><circle cx="824.17" cy="1061.66" r="67.5"/><path d="M805.85,1032.83a34.47,34.47,0,0,1,7.38.72,16,16,0,0,1,5.71,2.33,11,11,0,0,1,3.7,4.32,15.23,15.23,0,0,1,1.29,6.64A12.35,12.35,0,0,1,822,1054a14.11,14.11,0,0,1-5.77,4.67,13.52,13.52,0,0,1,7.77,5.26,17.46,17.46,0,0,1,.91,16.51,14.3,14.3,0,0,1-4.47,5.12,19.86,19.86,0,0,1-6.44,2.94,28.87,28.87,0,0,1-7.4,1H779.17v-56.59Zm-1.62,22.86a9,9,0,0,0,5.49-1.59c1.43-1,2.12-2.77,2.12-5.14a6.75,6.75,0,0,0-.69-3.25,5.12,5.12,0,0,0-1.92-2,7.84,7.84,0,0,0-2.74-1,16.89,16.89,0,0,0-3.21-.28H791.63v13.22Zm.69,24.09a15.79,15.79,0,0,0,3.5-.36,8,8,0,0,0,2.93-1.2,6,6,0,0,0,2-2.25,7.88,7.88,0,0,0,.74-3.67c0-2.92-.82-5-2.45-6.25a10.59,10.59,0,0,0-6.5-1.85H791.63v15.58Z" style="fill:#fff"/><path d="M844.31,1079.59q2.54,2.48,7.28,2.48a10.09,10.09,0,0,0,5.88-1.72,7.26,7.26,0,0,0,3-3.63h9.91c-1.6,4.93-4,8.45-7.31,10.57a21.26,21.26,0,0,1-11.87,3.19,23.62,23.62,0,0,1-8.74-1.55,18.5,18.5,0,0,1-6.61-4.41,19.9,19.9,0,0,1-4.16-6.83,25,25,0,0,1-1.47-8.73,24.05,24.05,0,0,1,1.51-8.57,20.1,20.1,0,0,1,4.29-6.87,20.44,20.44,0,0,1,6.64-4.57,21.3,21.3,0,0,1,8.54-1.67,19.39,19.39,0,0,1,9.11,2,18.21,18.21,0,0,1,6.39,5.43,22.22,22.22,0,0,1,3.6,7.78,28.66,28.66,0,0,1,.78,9.12H841.53C841.53,1074.88,842.62,1078,844.31,1079.59Zm12.93-21.53c-1.33-1.47-3.6-2.28-6.36-2.28a9.76,9.76,0,0,0-4.48.92,9,9,0,0,0-2.85,2.26,8,8,0,0,0-1.51,2.89,12.54,12.54,0,0,0-.51,2.7h18.31A11,11,0,0,0,857.24,1058.06Z" style="fill:#fff"/><rect x="839.22" y="1036.62" width="22.94" height="5.59" style="fill:#fff"/><circle cx="375.84" cy="668.55" r="67.5" style="fill:#010201"/><path d="M419.44,647.41q-.6,13.27-18.55,36.37-18.57,24.12-31.41,24.12-8,0-13.46-14.69-3.67-13.46-7.34-26.93-4.08-14.67-8.77-14.68-1,0-7.14,4.28l-4.28-5.51q6.74-5.93,13.28-11.84,9-7.77,13.48-8.18,10.62-1,13.08,14.52Q371,661.64,372,665.73q3.06,13.9,6.74,13.91c1.9,0,4.77-3,8.58-9s5.85-10.59,6.13-13.74q.81-7.79-6.13-7.79a17,17,0,0,0-6.73,1.49q6.7-22,25.62-21.35Q420.26,629.63,419.44,647.41Z" style="fill:#fff"/><circle cx="600" cy="1061.66" r="67.5" style="fill:#010201"/><path d="M545.18,1061.61l-.68,6.15.68,6.14a.35.35,0,0,0,.69,0l1-6.14-1-6.15a.34.34,0,0,0-.35-.34.33.33,0,0,0-.34.34m4.1-3.76-1,9.91,1,9.9a.34.34,0,1,0,.68,0l1.37-9.9-1.37-9.91a.33.33,0,0,0-.34-.34h0l-.34.34m13-1.37-.68,11.28.68,12a.73.73,0,0,0,.68.68.74.74,0,0,0,.69-.68l1.36-12-1-11.28a.73.73,0,0,0-.69-.68c-.68,0-1,.34-1,.68m-8.54-.68-1,12,1,11.27a.73.73,0,0,0,.68.68,1.18,1.18,0,0,0,.35-.68l1-11.27-1-12a.74.74,0,0,0-.69-.68c0,.34-.34.34-.34.68m4.1-.34-1,12.3,1,11.61a.73.73,0,0,0,.68.68.74.74,0,0,0,.69-.68l1-11.61-1-12.3a.74.74,0,0,0-.69-.68c-.34,0-.34.34-.68.68m8.88-6.15-1,18.45,1,12a.73.73,0,0,0,.68.68c.69,0,1-.34,1-.68l1-12-1-18.45a.73.73,0,0,0-.69-.68c-.68,0-1,.34-1,.68m4.44-4.1-.68,22.55.68,12a.9.9,0,0,0,1,1,1.09,1.09,0,0,0,1-1l1-12-1-22.55a1,1,0,0,0-2.05,0m18.1-1-.68,23.57.68,11.27a1.37,1.37,0,0,0,2.73,0l.69-11.27-.69-23.91a1.46,1.46,0,0,0-1.36-1.37c-1,.34-1.37.68-1.37,1.71m-13.66-1-.68,24.6.68,11.61a1,1,0,0,0,2,0l.68-11.61-.68-24.6a.9.9,0,0,0-1-1,1.09,1.09,0,0,0-1,1m8.88,0-.68,24.6.68,11.61a1.37,1.37,0,0,0,2.73,0l.69-11.61-.69-24.6a1.37,1.37,0,0,0-2.73,0m-4.44-.68-.68,25.28.68,11.61a1,1,0,0,0,2.05,0l.68-11.61-.68-25.28a1,1,0,0,0-2.05,0m13.66-3.07-.68,28.35.68,11.27a1.37,1.37,0,0,0,2.73,0l.69-11.27-.69-28.35a1.37,1.37,0,1,0-2.73,0m4.78-2.39-.68,30.74.68,11.27a1.37,1.37,0,0,0,2.74,0l.68-11.27L601.2,1037a1.47,1.47,0,0,0-1.37-1.37h-.34c-.69,0-1,.68-1,1.37m5.47-3.08c-1,.34-1.37.69-1.37,1.71V1079a2.25,2.25,0,0,0,1.37,1.7h37.91a13.66,13.66,0,0,0,0-27.32,12.33,12.33,0,0,0-5.12,1,23.86,23.86,0,0,0-23.91-21.86H611.1a26.69,26.69,0,0,0-7.17,1.36" style="fill:#fff"/><circle cx="1048.33" cy="1061.66" r="67.5" style="fill:#010201"/><path d="M1049,1096.12a56.69,56.69,0,0,1-8.54-.52,1.48,1.48,0,0,0-1.13.28c-5.62,3.94-11.23,7.89-17,11.57-.71.44-1.44.84-2.17,1.25a2.22,2.22,0,0,1-.83.29c-.93.12-1.47-.42-1.28-1.34.35-1.62.83-3.2,1.28-4.79,1.15-4,2.29-8,3.45-12,.1-.36.07-.52-.3-.71a44.16,44.16,0,0,1-14.23-11.11,32.49,32.49,0,0,1-7.46-16,30.29,30.29,0,0,1,3.48-19.56,39.71,39.71,0,0,1,13.65-14.35,53.21,53.21,0,0,1,19.83-7.68,59,59,0,0,1,16-.7,53.51,53.51,0,0,1,27.55,10.06,36.79,36.79,0,0,1,12.48,15.22c4.25,10,3.36,19.73-2.3,29a40.63,40.63,0,0,1-14.71,13.85,53.91,53.91,0,0,1-18.37,6.48A59.7,59.7,0,0,1,1049,1096.12Z" style="fill:#fff"/><path d="M1071.25,1055.69a2.75,2.75,0,0,1,.32-.44l7.09-7.1a2.32,2.32,0,0,1,3-.38,2.69,2.69,0,0,1,1.28,3,2.57,2.57,0,0,1-.69,1c-1.94,1.94-3.87,3.88-5.82,5.8-.27.27-.26.43,0,.71q3.24,4.28,6.46,8.56a2.77,2.77,0,1,1-4.37,3.39c-1.92-2.53-3.83-5.08-5.75-7.61a1.49,1.49,0,0,0-.15-.2c-.22-.22-.28-.64-.63-.66s-.91,1-.91,1.28c0,1.91,0,3.81,0,5.71a2.71,2.71,0,0,1-2.28,2.64,2.76,2.76,0,0,1-3-1.59,2.69,2.69,0,0,1-.26-1.19c0-6.28,0-12.56,0-18.84a2.76,2.76,0,1,1,5.52,0c0,1.8,0,3.61,0,5.41v.38Z" style="fill:#010201"/><path d="M1019,1060.82c0-2.62,0-5.25,0-7.87,0-.41-.07-.57-.53-.55-1.23,0-2.46,0-3.69,0a2.71,2.71,0,1,1,0-5.41q7,0,14,0a2.71,2.71,0,0,1,.76,5.33,2.89,2.89,0,0,1-.83.08c-1.22,0-2.45,0-3.68,0-.41,0-.49.12-.49.5q0,7.85,0,15.69a2.7,2.7,0,0,1-1.9,2.78,2.75,2.75,0,0,1-3.64-2.63C1019,1066.1,1019,1063.46,1019,1060.82Z" style="fill:#010201"/><path d="M1050.3,1059.13c0-3.12,0-6.23,0-9.35a2.78,2.78,0,0,1,2.54-2.77,2.83,2.83,0,0,1,3,2.08,3.56,3.56,0,0,1,.09,1q0,7.7,0,15.39c0,.44.11.55.54.54,1.8,0,3.61,0,5.41,0a2.52,2.52,0,0,1,.17,5c-3.11,0-6.23,0-9.34,0a2.52,2.52,0,0,1-2.41-2.56C1050.29,1065.39,1050.3,1062.26,1050.3,1059.13Z" style="fill:#010201"/><path d="M1048.4,1066.91c-1.15-3.05-2.32-6.09-3.47-9.13-1-2.71-2-5.42-3.09-8.12a3.92,3.92,0,0,0-4.27-2.58,4.05,4.05,0,0,0-3.1,2.73q-2.82,7.39-5.63,14.81a25.13,25.13,0,0,0-1.24,3.57c-.41,2,.26,3,2.2,3.25a2.47,2.47,0,0,0,3-1.72c.35-.9.71-1.8,1-2.71a.47.47,0,0,1,.53-.36c1.28,0,2.56,0,3.84,0s2.53,0,3.79,0c.34,0,.47.11.58.42.33.92.75,1.82,1,2.75a2.26,2.26,0,0,0,2.29,1.65,4.44,4.44,0,0,0,1.73-.29,1.77,1.77,0,0,0,1.22-1.63A5.93,5.93,0,0,0,1048.4,1066.91Zm-10.94-5.16c-.54,0-1.09,0-1.63,0-.35,0-.4-.07-.28-.4q1.07-3,2.11-6c.16-.45.32-.89.52-1.48l2.77,7.84Z" style="fill:#010201"/><circle cx="1048.33" cy="668.55" r="67.5" style="fill:#010201"/><g id="FULL_COLOR_ICON" data-name="FULL COLOR ICON"><g id="TYPE_A" data-name="TYPE A"><path d="M1094.11,662.05c0-20.58-20.63-37.33-46-37.33s-46,16.75-46,37.33c0,18.45,16.37,33.91,38.47,36.83,1.5.32,3.54,1,4.05,2.27a9.28,9.28,0,0,1,.15,4.16s-.54,3.24-.65,3.94c-.2,1.16-.93,4.54,4,2.47s26.49-15.59,36.14-26.7h0c6.67-7.31,9.86-14.73,9.86-23" style="fill:#fff"/><path d="M1038.76,652.1h-3.22a.9.9,0,0,0-.9.9v20a.9.9,0,0,0,.9.9h3.22a.9.9,0,0,0,.9-.9V653a.9.9,0,0,0-.9-.9" style="fill:#010201"/><path d="M1061,652.1h-3.22a.9.9,0,0,0-.9.9v11.91l-9.18-12.41-.07-.09h0l0-.06,0,0,0,0h0l0,0h0l0,0h0l0,0h0l0,0h-3.48a.89.89,0,0,0-.89.9v20a.89.89,0,0,0,.89.9h3.23a.9.9,0,0,0,.9-.9v-11.9l9.19,12.42a1,1,0,0,0,.23.22h0l0,0h0l0,0,.05,0h0l.06,0h0a1.6,1.6,0,0,0,.23,0H1061a.9.9,0,0,0,.9-.9V653a.9.9,0,0,0-.9-.9" style="fill:#010201"/><path d="M1031,668.92h-8.77V653a.9.9,0,0,0-.9-.9h-3.22a.9.9,0,0,0-.9.9v20h0a.91.91,0,0,0,.25.62h0l0,0a.91.91,0,0,0,.62.25H1031a.9.9,0,0,0,.89-.9v-3.23a.89.89,0,0,0-.89-.89" style="fill:#010201"/><path d="M1078.79,657.12a.89.89,0,0,0,.9-.89V653a.9.9,0,0,0-.9-.9H1065.9a.88.88,0,0,0-.62.26h0a.9.9,0,0,0-.24.62h0v20h0a.87.87,0,0,0,.25.62h0v0a.91.91,0,0,0,.62.25h12.89a.9.9,0,0,0,.9-.9v-3.23a.89.89,0,0,0-.9-.89H1070v-3.39h8.77a.9.9,0,0,0,.9-.9v-3.22a.9.9,0,0,0-.9-.9H1070v-3.39Z" style="fill:#010201"/></g></g><path d="M219.17,275.45a67.5,67.5,0,1,0-78,66.68V295H124V275.45h17.14V260.57c0-16.91,10.08-26.26,25.5-26.26a103.77,103.77,0,0,1,15.11,1.32v16.61h-8.51c-8.39,0-11,5.21-11,10.54v12.67h18.72l-3,19.51H162.22v47.17A67.52,67.52,0,0,0,219.17,275.45Z" style="fill:#010201"/><path d="M177.94,295l3-19.51H162.22V262.78c0-5.33,2.61-10.54,11-10.54h8.51V235.63a103.77,103.77,0,0,0-15.11-1.32c-15.42,0-25.5,9.35-25.5,26.26v14.88H124V295h17.14v47.17a68.28,68.28,0,0,0,21.1,0V295Z" style="fill:#fff"/><path d="M151.87,601.05a67.5,67.5,0,1,0,67.5,67.5A67.51,67.51,0,0,0,151.87,601.05Zm31,97.36a4.2,4.2,0,0,1-5.78,1.4c-15.85-9.69-35.81-11.88-59.3-6.51a4.21,4.21,0,1,1-1.87-8.2c25.71-5.88,47.76-3.35,65.56,7.52A4.22,4.22,0,0,1,182.83,698.41ZM191.09,680a5.26,5.26,0,0,1-7.24,1.73c-18.14-11.15-45.8-14.38-67.26-7.86a5.26,5.26,0,1,1-3.06-10.07c24.52-7.44,55-3.84,75.83,9A5.27,5.27,0,0,1,191.09,680Zm.71-19.14c-21.76-12.92-57.64-14.11-78.42-7.8A6.32,6.32,0,0,1,109.72,641c23.84-7.24,63.48-5.84,88.53,9a6.32,6.32,0,0,1-6.45,10.86Z" style="fill:#010201"/><path d="M182.83,698.41a4.2,4.2,0,0,1-5.78,1.4c-15.85-9.69-35.81-11.88-59.3-6.51a4.21,4.21,0,1,1-1.87-8.2c25.71-5.88,47.76-3.35,65.56,7.52A4.22,4.22,0,0,1,182.83,698.41Z" style="fill:#fff"/><path d="M191.09,680a5.26,5.26,0,0,1-7.24,1.73c-18.14-11.15-45.8-14.38-67.26-7.86a5.26,5.26,0,1,1-3.06-10.07c24.52-7.44,55-3.84,75.83,9A5.27,5.27,0,0,1,191.09,680Z" style="fill:#fff"/><path d="M191.8,660.89c-21.76-12.92-57.64-14.11-78.42-7.8A6.32,6.32,0,0,1,109.72,641c23.84-7.24,63.48-5.84,88.53,9a6.32,6.32,0,0,1-6.45,10.86Z" style="fill:#fff"/><circle cx="375.84" cy="472.46" r="67.5" style="fill:#010201"/><path d="M413.66,450.16c0-.4,0-.41-.42-.41a19.23,19.23,0,0,1-2.94-.25c-3.53-.54-15-6.54-16.93-16.37a29,29,0,0,1-.46-3.67c0-.47,0-.47-.47-.48H378.68c-.91,0-.78-.11-.78.8V488.1a12,12,0,0,1-.15,2.16,12.61,12.61,0,0,1-15,10.31,17,17,0,0,1-2.95-1l-.24-.21a12,12,0,0,0-1-.74c-4.15-2.87-6.12-6.86-5.52-11.85s3.52-8.5,8.31-10.27a11,11,0,0,1,4.47-.66,13,13,0,0,1,2.92.44c.33.1.51,0,.53-.37,0-.12,0-.24,0-.37,0-3.49-.13-11.11-.15-11.13,0-1,0-2,0-3,0-.29-.14-.34-.39-.37a27.48,27.48,0,0,0-30.85,25.45,27.82,27.82,0,0,0,.06,4.28A27.28,27.28,0,0,0,348.41,510a6.76,6.76,0,0,0,1.43,1h0l.68.6a14.61,14.61,0,0,0,2.3,1.41,27.79,27.79,0,0,0,33.62-6.75,27.08,27.08,0,0,0,6.63-18c.05-9.68,0-19.36,0-29,0-.23-.14-.56.12-.68s.4.18.58.3a35.59,35.59,0,0,0,11.7,5,33.28,33.28,0,0,0,7.44.9c.8,0,.9,0,.9-.83C413.84,460.47,413.66,451.07,413.66,450.16Z" style="fill:#fff"/><circle cx="375.84" cy="864.64" r="67.5" style="fill:#010201"/><g id="Layer_1-2" data-name="Layer 1-2"><path d="M352.5,823l-16.66,16.67v60h20V916.3l16.66-16.66h13.34l30-30V823Zm56.67,43.33-13.33,13.34H382.5L370.84,891.3V879.64h-15v-50h53.33Z" style="fill:#fff"/><rect x="392.5" y="841.3" width="6.67" height="20" style="fill:#fff"/><rect x="374.17" y="841.3" width="6.67" height="20" style="fill:#fff"/></g><circle cx="600" cy="864.64" r="67.5" style="fill:#010201"/><polygon points="645.43 881.9 645.43 881.9 645.43 881.9 645.43 881.9" style="fill:url(#linear-gradient)"/><path d="M645.42,881.91h0l0-.34c0-.24,0-.48-.07-.72s-.07-.6-.11-.89c0-.1,0-.2-.05-.3a26.65,26.65,0,0,0-3.1-9,42.47,42.47,0,0,0-46.6-47.87l-.18-.12h0l-.35-.21-.27-.15q-.49-.28-1-.54l-.31-.16-.12-.07h0c-.29-.15-.58-.29-.88-.42l-.32-.15-.64-.26h0l-.43-.17-.2-.08h0a25.28,25.28,0,0,0-3.69-1.08l-.11,0c-.69-.15-1.39-.26-2.1-.36l-.19,0h0a25.84,25.84,0,0,0-3.32-.21,26.77,26.77,0,0,0-26.81,26.72c0,.77,0,1.53.1,2.28h0a1.23,1.23,0,0,0,0,.2c0,.22,0,.43.07.64s.07.57.11.86l0,.22a26.79,26.79,0,0,0,3.15,9.07,42.3,42.3,0,0,0,42,48.45,44.35,44.35,0,0,0,5.06-.31l.05,0,.2.11.17.1.22.12c.52.29,1.06.56,1.6.82l.06,0h0c.34.16.68.31,1,.45l.28.11,1.08.41.19.07h0c.47.16.94.3,1.42.44l.15,0,1,.25.25.06.93.19.34.06.87.14.44.05c.27,0,.53.07.8.09l.11,0h0q1.2.12,2.43.12a26.78,26.78,0,0,0,26.82-26.74C645.5,883.18,645.47,882.54,645.42,881.91Zm-31.19.89a13.16,13.16,0,0,1-6.2,4.6,25.94,25.94,0,0,1-9.32,1.52,29.3,29.3,0,0,1-12.7-2.4,6.92,6.92,0,0,1-2.61-2,4.52,4.52,0,0,1-.85-2.77,3.63,3.63,0,0,1,1.11-2.82,4.12,4.12,0,0,1,2.88-1,7.33,7.33,0,0,1,3.37.86c1.29.65,2.31,1.13,3.05,1.45a15.08,15.08,0,0,0,6,1.19,9,9,0,0,0,5.68-1.52,5,5,0,0,0,1.92-4.15,4.42,4.42,0,0,0-1.2-3,12.55,12.55,0,0,0-3.53-2.57q-2.34-1.23-6.57-3a41.55,41.55,0,0,1-7.22-3.75,13.29,13.29,0,0,1-4.18-4.42,12.23,12.23,0,0,1-1.44-6.1,11,11,0,0,1,2.59-7.38,15.48,15.48,0,0,1,6.73-4.5,26,26,0,0,1,8.82-1.49,34,34,0,0,1,5.87.45,21.82,21.82,0,0,1,4.06,1.05,8,8,0,0,1,3.19,2,4.12,4.12,0,0,1,1,2.74,4,4,0,0,1-1,2.85,3.46,3.46,0,0,1-2.6,1.08,4.57,4.57,0,0,1-1.93-.43,35.8,35.8,0,0,0-4.61-1.69,16.91,16.91,0,0,0-4.43-.55,10.1,10.1,0,0,0-5.55,1.42,4.64,4.64,0,0,0-2.22,4.15,4.17,4.17,0,0,0,1.15,2.92,10.67,10.67,0,0,0,3.1,2.22c1.3.64,3.24,1.5,5.82,2.56a6,6,0,0,1,.83.34,40.46,40.46,0,0,1,7.2,3.7,14.5,14.5,0,0,1,4.44,4.55,12,12,0,0,1,1.6,6.32A12.71,12.71,0,0,1,614.23,882.8Z" style="fill:#fff;fill-rule:evenodd"/><circle cx="375.84" cy="1061.65" r="67.5" style="fill:#010201"/><path d="M408.69,1034.24a1.55,1.55,0,0,0-1-1.15,5.5,5.5,0,0,0-2.84.2s-63.08,22.68-66.69,25.19c-.77.54-1,.86-1.16,1.22-.62,1.79,1.32,2.58,1.32,2.58l16.26,5.3a1.73,1.73,0,0,0,.82,0c3.7-2.34,37.21-23.5,39.15-24.21.3-.09.53,0,.47.22-.78,2.72-29.89,28.59-29.89,28.59a1.58,1.58,0,0,0-.18.3l0,0-1.51,16.13s-.64,4.94,4.3,0c3.49-3.49,6.86-6.41,8.55-7.82,5.59,3.86,11.61,8.13,14.2,10.36a4.56,4.56,0,0,0,3.3,1.27c2.46-.09,3.15-2.8,3.15-2.8s11.5-46.27,11.88-52.47c0-.6.09-1,.09-1.41A4.84,4.84,0,0,0,408.69,1034.24Z" style="fill:#fff"/></g></svg>