<svg xmlns="http://www.w3.org/2000/svg">
  <defs>
    <symbol id="facebook" viewBox="0 0 24 24">
      <title>Facebook</title>
      <path d="M1034.69,314.32c33,0,51-27.31,51-51,0-.77,0-1.54,0-2.31a36.52,36.52,0,0,0,8.94-9.28,36.21,36.21,0,0,1-10.29,2.82,18,18,0,0,0,7.88-9.92,35.73,35.73,0,0,1-11.38,4.35,17.93,17.93,0,0,0-31,12.26,17.75,17.75,0,0,0,.46,4.09,50.88,50.88,0,0,1-36.94-18.73,17.93,17.93,0,0,0,5.55,23.93,17.82,17.82,0,0,1-8.12-2.24,1.69,1.69,0,0,0,0,.23,17.93,17.93,0,0,0,14.38,17.57,18,18,0,0,1-8.09.31,18,18,0,0,0,16.74,12.45,36,36,0,0,1-22.26,7.67,35.48,35.48,0,0,1-4.27-.25,50.76,50.76,0,0,0,27.47,8.05" style="fill:#fff"/><circle cx="824.17" cy="668.55" r="67.5" style="fill:#010201"/>
    </symbol>

    <symbol id="instagram" viewBox="0 0 24 24">
      <title>Instagram</title>
      <path d=""/>
    </symbol>

    <symbol id="youtube" viewBox="0 0 24 24">
      <title>Youtube</title>
      <path d=""/>
    </symbol>
  </defs>
</svg>